<?xml version="1.0" encoding="UTF-8"?>
<svg xmlns="http://www.w3.org/2000/svg" xmlns:xlink="http://www.w3.org/1999/xlink" width="187pt" height="128pt" viewBox="0 0 187 128" version="1.1">
<g id="surface1">
<path style="fill:none;stroke-width:1.19553;stroke-linecap:butt;stroke-linejoin:miter;stroke:rgb(0%,0%,0%);stroke-opacity:1;stroke-miterlimit:10;" d="M 28.347919 28.346125 L 209.764629 28.346125 " transform="matrix(1.00005,0,0,-1,-25.853243,154.268)"/>
<path style="fill:none;stroke-width:1.19553;stroke-linecap:butt;stroke-linejoin:miter;stroke:rgb(0%,0%,0%);stroke-opacity:1;stroke-miterlimit:10;" d="M 28.347919 28.346125 L 28.347919 153.072688 " transform="matrix(1.00005,0,0,-1,-25.853243,154.268)"/>
<path style="fill:none;stroke-width:0.19925;stroke-linecap:butt;stroke-linejoin:miter;stroke:rgb(50%,50%,50%);stroke-opacity:1;stroke-miterlimit:10;" d="M 28.347919 28.346125 L 209.764629 28.346125 M 28.347919 56.693781 L 209.764629 56.693781 M 28.347919 85.041438 L 209.764629 85.041438 M 28.347919 113.389094 L 209.764629 113.389094 M 28.347919 141.732844 L 209.764629 141.732844 M 28.347919 28.346125 L 28.347919 153.072688 M 56.694158 28.346125 L 56.694158 153.072688 M 85.040397 28.346125 L 85.040397 153.072688 M 113.386636 28.346125 L 113.386636 153.072688 M 141.732875 28.346125 L 141.732875 153.072688 M 170.079114 28.346125 L 170.079114 153.072688 M 198.429259 28.346125 L 198.429259 153.072688 " transform="matrix(1.00005,0,0,-1,-25.853243,154.268)"/>
<path style=" stroke:none;fill-rule:nonzero;fill:rgb(0%,0%,0%);fill-opacity:1;" d="M 43.601563 97.574219 C 43.601563 90.53125 37.886719 84.820313 30.84375 84.820313 C 23.796875 84.820313 18.085938 90.53125 18.085938 97.574219 C 18.085938 104.621094 23.796875 110.332031 30.84375 110.332031 C 37.886719 110.332031 43.601563 104.621094 43.601563 97.574219 Z M 43.601563 97.574219 "/>
<path style=" stroke:none;fill-rule:nonzero;fill:rgb(0%,0%,0%);fill-opacity:1;" d="M 43.601563 69.226563 C 43.601563 62.183594 37.886719 56.472656 30.84375 56.472656 C 23.796875 56.472656 18.085938 62.183594 18.085938 69.226563 C 18.085938 76.273438 23.796875 81.984375 30.84375 81.984375 C 37.886719 81.984375 43.601563 76.273438 43.601563 69.226563 Z M 43.601563 69.226563 "/>
<path style=" stroke:none;fill-rule:nonzero;fill:rgb(0%,0%,0%);fill-opacity:1;" d="M 71.949219 97.574219 C 71.949219 90.53125 66.238281 84.820313 59.191406 84.820313 C 52.144531 84.820313 46.433594 90.53125 46.433594 97.574219 C 46.433594 104.621094 52.144531 110.332031 59.191406 110.332031 C 66.238281 110.332031 71.949219 104.621094 71.949219 97.574219 Z M 71.949219 97.574219 "/>
<path style=" stroke:none;fill-rule:nonzero;fill:rgb(0%,0%,0%);fill-opacity:1;" d="M 100.296875 69.226563 C 100.296875 62.183594 94.585938 56.472656 87.539063 56.472656 C 80.496094 56.472656 74.78125 62.183594 74.78125 69.226563 C 74.78125 76.273438 80.496094 81.984375 87.539063 81.984375 C 94.585938 81.984375 100.296875 76.273438 100.296875 69.226563 Z M 100.296875 69.226563 "/>
<path style=" stroke:none;fill-rule:nonzero;fill:rgb(0%,0%,0%);fill-opacity:1;" d="M 128.644531 69.226563 C 128.644531 62.183594 122.933594 56.472656 115.886719 56.472656 C 108.84375 56.472656 103.132813 62.183594 103.132813 69.226563 C 103.132813 76.273438 108.84375 81.984375 115.886719 81.984375 C 122.933594 81.984375 128.644531 76.273438 128.644531 69.226563 Z M 128.644531 69.226563 "/>
<path style=" stroke:none;fill-rule:nonzero;fill:rgb(0%,0%,0%);fill-opacity:1;" d="M 156.992188 69.226563 C 156.992188 62.183594 151.28125 56.472656 144.234375 56.472656 C 137.191406 56.472656 131.480469 62.183594 131.480469 69.226563 C 131.480469 76.273438 137.191406 81.984375 144.234375 81.984375 C 151.28125 81.984375 156.992188 76.273438 156.992188 69.226563 Z M 156.992188 69.226563 "/>
<path style=" stroke:none;fill-rule:nonzero;fill:rgb(0%,0%,0%);fill-opacity:1;" d="M 156.992188 97.574219 C 156.992188 90.53125 151.28125 84.820313 144.234375 84.820313 C 137.191406 84.820313 131.480469 90.53125 131.480469 97.574219 C 131.480469 104.621094 137.191406 110.332031 144.234375 110.332031 C 151.28125 110.332031 156.992188 104.621094 156.992188 97.574219 Z M 156.992188 97.574219 "/>
<path style="fill-rule:nonzero;fill:rgb(100%,100%,100%);fill-opacity:1;stroke-width:0.3985;stroke-linecap:butt;stroke-linejoin:miter;stroke:rgb(0%,0%,0%);stroke-opacity:1;stroke-miterlimit:10;" d="M 69.451333 113.389094 C 69.451333 120.432063 63.736775 126.143 56.694158 126.143 C 49.647635 126.143 43.936983 120.432063 43.936983 113.389094 C 43.936983 106.342219 49.647635 100.631281 56.694158 100.631281 C 63.736775 100.631281 69.451333 106.342219 69.451333 113.389094 Z M 69.451333 113.389094 " transform="matrix(1.00005,0,0,-1,-25.853243,154.268)"/>
<path style="fill-rule:nonzero;fill:rgb(100%,100%,100%);fill-opacity:1;stroke-width:0.3985;stroke-linecap:butt;stroke-linejoin:miter;stroke:rgb(0%,0%,0%);stroke-opacity:1;stroke-miterlimit:10;" d="M 97.797571 113.389094 C 97.797571 120.432063 92.08692 126.143 85.040397 126.143 C 77.993874 126.143 72.283222 120.432063 72.283222 113.389094 C 72.283222 106.342219 77.993874 100.631281 85.040397 100.631281 C 92.08692 100.631281 97.797571 106.342219 97.797571 113.389094 Z M 97.797571 113.389094 " transform="matrix(1.00005,0,0,-1,-25.853243,154.268)"/>
<path style="fill-rule:nonzero;fill:rgb(100%,100%,100%);fill-opacity:1;stroke-width:0.3985;stroke-linecap:butt;stroke-linejoin:miter;stroke:rgb(0%,0%,0%);stroke-opacity:1;stroke-miterlimit:10;" d="M 97.797571 85.041438 C 97.797571 92.084406 92.08692 97.795344 85.040397 97.795344 C 77.993874 97.795344 72.283222 92.084406 72.283222 85.041438 C 72.283222 77.994563 77.993874 72.283625 85.040397 72.283625 C 92.08692 72.283625 97.797571 77.994563 97.797571 85.041438 Z M 97.797571 85.041438 " transform="matrix(1.00005,0,0,-1,-25.853243,154.268)"/>
<path style="fill-rule:nonzero;fill:rgb(100%,100%,100%);fill-opacity:1;stroke-width:0.3985;stroke-linecap:butt;stroke-linejoin:miter;stroke:rgb(0%,0%,0%);stroke-opacity:1;stroke-miterlimit:10;" d="M 126.14381 113.389094 C 126.14381 120.432063 120.433158 126.143 113.386636 126.143 C 106.344019 126.143 100.629461 120.432063 100.629461 113.389094 C 100.629461 106.342219 106.344019 100.631281 113.386636 100.631281 C 120.433158 100.631281 126.14381 106.342219 126.14381 113.389094 Z M 126.14381 113.389094 " transform="matrix(1.00005,0,0,-1,-25.853243,154.268)"/>
<path style="fill-rule:nonzero;fill:rgb(100%,100%,100%);fill-opacity:1;stroke-width:0.3985;stroke-linecap:butt;stroke-linejoin:miter;stroke:rgb(0%,0%,0%);stroke-opacity:1;stroke-miterlimit:10;" d="M 154.490049 113.389094 C 154.490049 120.432063 148.779397 126.143 141.732875 126.143 C 134.690258 126.143 128.979606 120.432063 128.979606 113.389094 C 128.979606 106.342219 134.690258 100.631281 141.732875 100.631281 C 148.779397 100.631281 154.490049 106.342219 154.490049 113.389094 Z M 154.490049 113.389094 " transform="matrix(1.00005,0,0,-1,-25.853243,154.268)"/>
<path style="fill-rule:nonzero;fill:rgb(100%,100%,100%);fill-opacity:1;stroke-width:0.3985;stroke-linecap:butt;stroke-linejoin:miter;stroke:rgb(0%,0%,0%);stroke-opacity:1;stroke-miterlimit:10;" d="M 182.836288 113.389094 C 182.836288 120.432063 177.125636 126.143 170.079114 126.143 C 163.036497 126.143 157.325845 120.432063 157.325845 113.389094 C 157.325845 106.342219 163.036497 100.631281 170.079114 100.631281 C 177.125636 100.631281 182.836288 106.342219 182.836288 113.389094 Z M 182.836288 113.389094 " transform="matrix(1.00005,0,0,-1,-25.853243,154.268)"/>
<path style="fill-rule:nonzero;fill:rgb(100%,100%,100%);fill-opacity:1;stroke-width:0.3985;stroke-linecap:butt;stroke-linejoin:miter;stroke:rgb(0%,0%,0%);stroke-opacity:1;stroke-miterlimit:10;" d="M 211.182527 85.041438 C 211.182527 92.084406 205.471875 97.795344 198.429259 97.795344 C 191.382736 97.795344 185.672084 92.084406 185.672084 85.041438 C 185.672084 77.994563 191.382736 72.283625 198.429259 72.283625 C 205.471875 72.283625 211.182527 77.994563 211.182527 85.041438 Z M 211.182527 85.041438 " transform="matrix(1.00005,0,0,-1,-25.853243,154.268)"/>
<path style="fill-rule:nonzero;fill:rgb(100%,100%,100%);fill-opacity:1;stroke-width:0.3985;stroke-linecap:butt;stroke-linejoin:miter;stroke:rgb(0%,0%,0%);stroke-opacity:1;stroke-miterlimit:10;" d="M 211.182527 56.693781 C 211.182527 63.73675 205.471875 69.447688 198.429259 69.447688 C 191.382736 69.447688 185.672084 63.73675 185.672084 56.693781 C 185.672084 49.646906 191.382736 43.935969 198.429259 43.935969 C 205.471875 43.935969 211.182527 49.646906 211.182527 56.693781 Z M 211.182527 56.693781 " transform="matrix(1.00005,0,0,-1,-25.853243,154.268)"/>
</g>
</svg>
