<svg xmlns="http://www.w3.org/2000/svg" xmlns:xlink="http://www.w3.org/1999/xlink" version="1.1" width="430pt" height="429pt" viewBox="0 0 430 429">
<defs>
<path id="font_1_27" d="M.71699526 0V.0309906H.69898989C.6389923 .0309906 .625 .037979127 .6139984 .07095337L.397995 .6958008C.3929901 .7088165 .3909912 .7158203 .375 .7158203 .35899354 .7158203 .35598756 .70980837 .35099793 .6958008L.14399719 .09791565C.12599182 .04698181 .085998538 .03199768 .03199768 .0309906V0L.13398743 .0029907227 .24899292 0V.0309906C.19898987 .0309906 .17399597 .05596924 .17399597 .0819397 .17399597 .08493042 .1749878 .09492493 .17599488 .09692383L.22200012 .2277832H.46899415L.5219879 .07495117C.522995 .07095337 .5249939 .064956668 .5249939 .060958864 .5249939 .0309906 .46899415 .0309906 .44198609 .0309906V0C.47799684 .0029907227 .5479889 .0029907227 .58599856 .0029907227L.71699526 0M.45799256 .25878907H.23298645L.34498597 .58380129 .45799256 .25878907Z"/>
<path id="font_1_34" d="M.651001 .18289185C.651001 .26983644 .56900027 .34480287 .45799256 .35679627 .5549927 .3757782 .6239929 .43974305 .6239929 .51368716 .6239929 .6006317 .5319977 .6826172 .4019928 .6826172H.035995485V.6516113H.05999756C.13699341 .6516113 .13899231 .64060977 .13899231 .6046295V.07795715C.13899231 .041992189 .13699341 .0309906 .05999756 .0309906H.035995485V0H.42799378C.5609894-.0002593994 .651001 .08874512 .651001 .18273926V.18289185M.5269928 .5136719C.5269928 .44970704 .47799684 .36573792 .36698915 .36573792H.22200012V.6116333C.22200012 .64460757 .22399903 .6516113 .2709961 .6516113H.394989C.49198915 .65174868 .5269928 .56674197 .5269928 .51374819V.5136719M.5509949 .18386841C.5509949 .1129303 .49899293 .0309906 .3959961 .0309906H.2709961C.22399903 .0309906 .22200012 .037994386 .22200012 .07095337V.34375H.4099884C.5089874 .34399415 .5509949 .25099183 .5509949 .18399048V.18386841Z"/>
<path id="font_1_42" d="M.6649933 .23271179C.6649933 .24272156 .6649933 .24972534 .6519928 .24972534 .6409912 .24972534 .6409912 .24372864 .6399994 .23371887 .6319885 .09059143 .5249939 .008529663 .41600038 .008529663 .35499574 .008529663 .15899658 .042556764 .15899658 .34080506 .15899658 .64004519 .35398866 .67407229 .4149933 .67407229 .5239868 .67407229 .61299136 .58299258 .6329956 .4368744 .6349945 .42286683 .6349945 .41986085 .6489868 .41986085 .6649933 .41986085 .6649933 .42286683 .6649933 .44387818V.68107607C.6649933 .69807437 .6649933 .7050781 .6539917 .7050781 .6499939 .7050781 .6459961 .7050781 .6380005 .69306948L.58799746 .61901858C.5509949 .6550598 .5 .7050781 .4039917 .7050781 .21699524 .7050781 .055999757 .5459595 .055999757 .34179688 .055999757 .1346283 .21798706-.022460938 .4039917-.022460938 .5669861-.022460938 .6649933 .116622928 .6649933 .23271179Z"/>
<path id="font_1_46" d="M.70700076 .33580018C.70700076 .52568057 .57199099 .6826172 .40098573 .6826172H.034988405V.6516113H.05899048C.13598633 .6516113 .13798523 .64060977 .13798523 .6046295V.07795715C.13798523 .041992189 .13598633 .0309906 .05899048 .0309906H.034988405V0H.40098573C.56900027 0 .70700076 .1479187 .70700076 .33580018M.6069946 .33580018C.6069946 .22486878 .58799746 .16490174 .5519867 .11593628 .5319977 .08895874 .47499085 .0309906 .37399293 .0309906H.272995C.22599793 .0309906 .22399903 .037994386 .22399903 .07096863V.6116333C.22399903 .64460757 .22599793 .6516113 .272995 .6516113H.37298585C.43499757 .6516113 .5039978 .6296234 .5549927 .55867007 .59799197 .49969483 .6069946 .41375733 .6069946 .33580018Z"/>
<path id="font_1_49" d="M.6519928 .2579193H.6269989C.60198977 .10397339 .57899478 .0309906 .40699769 .0309906H.27398683C.22698975 .0309906 .22499085 .037994386 .22499085 .07098389V.33789063H.31498719C.4119873 .33789063 .4229889 .30589295 .4229889 .220932H.44799806V.48606874H.4229889C.4229889 .39994813 .4119873 .36888124 .31498719 .36888124H.22499085V.6087799C.22499085 .6416931 .22698975 .64868167 .27398683 .64868167H.40299989C.55599978 .64868167 .58299258 .59381106 .598999 .45507813H.6239929L.59599307 .6796875H.032989503V.64868167H.056991579C.13398743 .64868167 .13598633 .6377106 .13598633 .6017914V.07797241C.13598633 .041992189 .13398743 .0309906 .056991579 .0309906H.032989503V0H.6100006L.6519928 .2579193Z"/>
<path id="font_1_54" d="M.6100006 .45477296 .58200076 .6796875H.032989503V.64868167H.056991579C.13398743 .64868167 .13598633 .63768008 .13598633 .6016998V.07797241C.13598633 .041992189 .13398743 .0309906 .056991579 .0309906H.032989503V0C.067993167 .0029907227 .1459961 .0029907227 .18499756 .0029907227 .22599793 .0029907227 .31698609 .0029907227 .35299684 0V.0309906H.31999208C.22499085 .031188965 .22499085 .044189454 .22499085 .079193118V.3251953H.31098939C.40699769 .3251953 .4169922 .29318238 .4169922 .20819092H.44198609V.4731903H.4169922C.4169922 .38919068 .40699769 .3561859 .31098939 .3561859H.22499085V.6091919C.22499085 .64167788 .22698975 .64868167 .27398683 .64868167H.3939972C.5439911 .64868167 .56900027 .5926819 .58499148 .4546814L.6100006 .45477296Z"/>
<path id="font_1_58" d="M.7350006 .24145508V.27246095L.61299136 .26945497C.57299807 .26945497 .48799134 .26945497 .45199586 .27246095V.24145508H.48399354C.57398989 .24145508 .57699587 .23045349 .57699587 .19346619V.12948609C.57699587 .017532349 .44999696 .008529663 .42199708 .008529663 .35699464 .008529663 .15899658 .043518068 .15899658 .34155274 .15899658 .6410217 .35598756 .67407229 .41600038 .67407229 .522995 .67407229 .6139984 .5839386 .6339874 .43670655 .6359863 .42268373 .6359863 .41967774 .6499939 .41967774 .66600039 .41967774 .66600039 .42268373 .66600039 .44371034V.68107607C.66600039 .69807437 .66600039 .7050781 .6549988 .7050781 .651001 .7050781 .6469879 .7050781 .6389923 .69306948L.58898928 .61898806C.5569916 .6510315 .5029907 .7050781 .4039917 .7050781 .21798706 .7050781 .055999757 .546875 .055999757 .34155274 .055999757 .13648987 .21598816-.022460938 .4059906-.022460938 .47898866-.022460938 .5589905 .0035247803 .59298709 .06251526 .60598757 .040527345 .6459961 .0005340576 .6569977 .0005340576 .66600039 .0005340576 .66600039 .008529663 .66600039 .023529053V.19746399C.66600039 .2364502 .66999819 .24145508 .7350006 .24145508Z"/>
<path id="font_1_62" d="M.71598818 0V.0309906H.69200137C.61499026 .0309906 .61299136 .041992189 .61299136 .07797241V.6046448C.61299136 .640625 .61499026 .6516113 .69200137 .6516113H.71598818V.6826172C.68099978 .6796112 .6069946 .6796112 .56900027 .6796112 .5309906 .6796112 .45599366 .6796112 .42099 .6826172V.6516113H.44499208C.5219879 .6516113 .5239868 .640625 .5239868 .6046448V.37083436H.22499085V.6046448C.22499085 .640625 .22698975 .6516113 .3039856 .6516113H.32798768V.6826172C.29299928 .6796112 .21899414 .6796112 .18099976 .6796112 .14299011 .6796112 .067993167 .6796112 .032989503 .6826172V.6516113H.056991579C.13398743 .6516113 .13598633 .640625 .13598633 .6046448V.07797241C.13598633 .041992189 .13398743 .0309906 .056991579 .0309906H.032989503V0C.067993167 .0029907227 .14199829 .0029907227 .17999268 .0029907227 .21798706 .0029907227 .29299928 .0029907227 .32798768 0V.0309906H.3039856C.22698975 .0309906 .22499085 .041992189 .22499085 .07797241V.33984376H.5239868V.07797241C.5239868 .041992189 .5219879 .0309906 .44499208 .0309906H.42099V0C.45599366 .0029907227 .5299988 .0029907227 .56799319 .0029907227 .60598757 .0029907227 .68099978 .0029907227 .71598818 0Z"/>
<path id="font_1_67" d="M.46499635 .6516113V.6826172L.33599855 .6796112C.2939911 .6796112 .20599365 .6796112 .16799927 .6826172V.6516113H.20399475C.3019867 .6516113 .3019867 .63861086 .3019867 .6035919V.14746094C.3019867 .055999757 .2519989 0 .19898987 0 .19299317-.00039672853 .125-.00039672853 .08898926 .057617189 .14099121 .057617189 .15299988 .08761597 .15299988 .11361694 .15299988 .14961243 .125 .1696167 .09700012 .1696167 .07499695 .16999817 .040985109 .1559906 .040985109 .11199951 .040985109 .03753662 .11199951-.022460938 .20098877-.022460938 .30299378-.022460938 .37599183 .047531129 .3869934 .122543338 .3880005 .1305542 .3880005 .1325531 .3880005 .16654969V.61061099C.3880005 .6516113 .4019928 .6516113 .46499635 .6516113Z"/>
<path id="font_1_69" d="M.73599246 0V.0309906C.6819916 .0309906 .6609955 .034988405 .6309967 .07896423L.3999939 .41874696 .5799866 .5916443C.58799746 .5996399 .6409912 .65060427 .7220001 .6516113V.6826172C.69599917 .6796112 .6639862 .6796112 .6369934 .6796112 .6009979 .6796112 .5439911 .6796112 .5099945 .6826172V.6516113C.5499878 .65060427 .55599978 .6276245 .55599978 .6186218 .55599978 .6026306 .54599 .5926361 .5379944 .5856476L.22499085 .28683473V.6046295C.22499085 .64060977 .22698975 .6516113 .3039856 .6516113H.32798768V.6826172C.29299928 .6796112 .21899414 .6796112 .18099976 .6796112 .14299011 .6796112 .067993167 .6796112 .032989503 .6826172V.6516113H.056991579C.13398743 .6516113 .13598633 .64060977 .13598633 .6046295V.07795715C.13598633 .041992189 .13398743 .0309906 .056991579 .0309906H.032989503V0C.067993167 .0029907227 .14199829 .0029907227 .17999268 .0029907227 .21798706 .0029907227 .29299928 .0029907227 .32798768 0V.0309906H.3039856C.22698975 .0309906 .22499085 .041992189 .22499085 .07795715V.2528534L.34098817 .3627777 .5219879 .094955448C.5279999 .08595276 .5369873 .07296753 .5369873 .06097412 .5369873 .0309906 .49798585 .0309906 .47799684 .0309906V0C.5130005 .0029907227 .58299258 .0029907227 .62098696 .0029907227L.73599246 0Z"/>
<path id="font_1_71" d="M.58200076 .2578125H.5569916C.54599 .15588379 .5319977 .0309906 .35598756 .0309906H.27398683C.22698975 .03060913 .22499085 .037612916 .22499085 .07060242V.6036072C.22499085 .63760378 .22499085 .6516113 .31999208 .6516113H.35299684V.6826172C.31698609 .6796112 .22599793 .6796112 .18499756 .6796112 .1459961 .6796112 .067993167 .6796112 .032989503 .6826172V.6516113H.056991579C.13398743 .6518097 .13598633 .6408081 .13598633 .6048126V.07795715C.13598633 .04197693 .13398743 .0309906 .056991579 .0309906H.032989503V0H.55400088L.58200076 .2578125Z"/>
<path id="font_1_74" d="M.8789978 0V.0309906H.8549957C.7779999 .0309906 .776001 .041992189 .776001 .07795715V.6046295C.776001 .64060977 .7779999 .6516113 .8549957 .6516113H.8789978V.6826172H.70999148C.6839905 .6826172 .6839905 .6816101 .6769867 .66360476L.45799256 .10095215 .24099732 .660614C.23199463 .6826172 .22898865 .6826172 .20599365 .6826172H.036987306V.6516113H.06098938C.13798523 .6516113 .13999939 .64060977 .13999939 .6046295V.10494995C.13999939 .07795715 .13999939 .0309906 .036987306 .0309906V0L.1539917 .0029907227 .2709961 0V.0309906C.16799927 .0309906 .16799927 .07795715 .16799927 .10494995V.6436157H.16899109L.4099884 .021987915C.4149933 .008987427 .41999818 0 .42999269 0 .44099427 0 .44400025 .0079956059 .44799806 .018997193L.69400027 .6516113H.69499209V.07795715C.69499209 .041992189 .69299319 .0309906 .6159973 .0309906H.59199526V0C.6289978 .0029907227 .69699099 .0029907227 .73599246 .0029907227 .7749939 .0029907227 .84199526 .0029907227 .8789978 0Z"/>
<path id="font_1_76" d="M.71598818 .6516113V.6826172L.598999 .6796112 .48199464 .6826172V.6516113C.58499148 .6516113 .58499148 .6046295 .58499148 .577652V.15092469L.23199463 .6696167C.22299195 .6816101 .22200012 .6826172 .20298767 .6826172H.032989503V.6516113H.06199646C.07699585 .6516113 .09700012 .65060427 .11199951 .6496124 .1349945 .64660647 .13598633 .6456146 .13598633 .62661746V.10494995C.13598633 .07795715 .13598633 .0309906 .032989503 .0309906V0L.1499939 .0029907227 .2669983 0V.0309906C.1639862 .0309906 .1639862 .07795715 .1639862 .10494995V.62461856C.16899109 .6196289 .16999817 .6186218 .17399597 .6126251L.58200076 .0129852299C.59098818 .0009918213 .59199526 0 .598999 0 .61299136 0 .61299136 .0069885256 .61299136 .025985718V.577652C.61299136 .6046295 .61299136 .6516113 .71598818 .6516113Z"/>
<path id="font_1_80" d="M.72099307 .3387909C.72099307 .5429535 .56999209 .7050781 .3880005 .7050781 .20899964 .7050781 .055999757 .5449524 .055999757 .3387909 .055999757 .13363648 .20999146-.022460938 .3880005-.022460938 .56999209-.022460938 .72099307 .13664246 .72099307 .3387909M.6179962 .35281373C.6179962 .08760071 .48098756 .0035247803 .3889923 .0035247803 .29299928 .0035247803 .15899658 .09159851 .15899658 .35281373 .15899658 .6120148 .30499269 .68006899 .3880005 .68006899 .47499085 .68006899 .6179962 .6090088 .6179962 .35281373Z"/>
<path id="font_1_83" d="M.6239929 .4967041C.6239929 .59465029 .5249939 .6826172 .3880005 .6826172H.034988405V.6516113H.05899048C.13598633 .6516113 .13798523 .64060977 .13798523 .6046295V.07795715C.13798523 .041992189 .13598633 .0309906 .05899048 .0309906H.034988405V0C.069992069 .0029907227 .14399719 .0029907227 .18199158 .0029907227 .21998596 .0029907227 .29499818 .0029907227 .32998658 0V.0309906H.30599977C.22898865 .0309906 .22698975 .041992189 .22698975 .07795715V.3157959H.3959961C.5159912 .3157959 .6239929 .39675904 .6239929 .4967041M.5209961 .4967041C.5209961 .4497223 .5209961 .34179688 .3619995 .34179688H.22399903V.6116333C.22399903 .64460757 .22599793 .6516113 .272995 .6516113H.3619995C.5209961 .6516113 .5209961 .54566958 .5209961 .4967041Z"/>
<path id="font_1_90" d="M.72698977-.010345459C.72698977-.00033569337 .72698977 .010650635 .71598818 .010650635 .70700076 .010650635 .70599368 .0026550294 .7049866-.0073394777 .69898989-.061340333 .6569977-.09133911 .6139984-.09133911 .5669861-.09133911 .5419922-.05734253 .5179901 .006652832 .6359863 .059570314 .72099307 .1876831 .72099307 .3387909 .72099307 .5429535 .56999209 .7050781 .3880005 .7050781 .20899964 .7050781 .055999757 .54496768 .055999757 .3387909 .055999757 .13664246 .20698548-.022460938 .3889923-.022460938 .41999818-.022460938 .45498658-.016464234 .48399354-.007461548 .49899293-.1023407 .5130005-.19433594 .60598757-.19433594 .70799258-.1945343 .72698977-.061538698 .72698977-.010528564V-.010345459M.62098696 .33866883C.62098696 .2605896 .60899356 .11946106 .5029907 .04147339 .48098756 .097457889 .44898988 .14746094 .3899994 .14746094 .33898927 .14746094 .30799867 .10446167 .30799867 .06347656 .30799867 .036468507 .32099916 .017471314 .32199098 .015472412 .2679901 .035461427 .1559906 .10845947 .1559906 .33866883 .1559906 .59898379 .29599 .68006899 .3880005 .68006899 .4850006 .6794586 .62098696 .5934601 .62098696 .3384552V.33866883M.47698976 .025497437C.44299317 .0065307619 .41099549 .002532959 .3889923 .002532959 .33799745 .002532959 .32998658 .048461915 .32998658 .06347656 .32998658 .09246826 .35099793 .12545777 .3899994 .12545777 .44400025 .12545777 .46598817 .083465579 .47698976 .025497437Z"/>
<path id="font_1_95" d="M.7319946 .08753967C.7319946 .09353638 .7319946 .104537967 .71899417 .104537967 .70799258 .104537967 .70799258 .09555054 .70700076 .08854675 .70098879 .017532349 .66600039-.00047302247 .6409912-.00047302247 .59199526-.00047302247 .58399966 .05053711 .56999209 .14355469L.5569916 .22355652C.5389862 .28756715 .48999024 .3205719 .43499757 .3395691 .5319977 .36357118 .6100006 .4245758 .6100006 .502594 .6100006 .5986023 .49598695 .6826172 .34899903 .6826172H.034988405V.6516113H.05899048C.13598633 .6516113 .13798523 .64060977 .13798523 .604599V.077545169C.13798523 .04197693 .13598633 .0309906 .05899048 .0309906H.034988405V0C.070999149 .0029907227 .14199829 .0029907227 .18099976 .0029907227 .21998596 .0029907227 .29100038 .0029907227 .32699586 0V.0309906H.30299378C.22599793 .0309906 .22399903 .04197693 .22399903 .077926639V.3305359H.33898927C.35499574 .3305359 .39698792 .3305359 .43199159 .29658509 .46998597 .26063539 .46998597 .22969055 .46998597 .16279602 .46998597 .09788513 .46998597 .05795288 .5109863 .019989014 .5519867-.016464234 .6069946-.022460938 .6369934-.022460938 .71499636-.022460938 .7319946 .059524537 .7319946 .087524417V.08753967M.5069885 .5025635C.5069885 .43354798 .48298646 .35253907 .33499146 .35253907H.22399903V.6116028C.22399903 .6345978 .22399903 .64660647 .24598694 .6496124 .2559967 .6516113 .2849884 .6516113 .30499269 .6516113 .394989 .6516113 .5069885 .6476135 .5069885 .5025635Z"/>
<path id="font_1_97" d="M.49899293 .18579102C.49899293 .2858429 .43299867 .36791993 .34899903 .38793946L.22099304 .4189453C.15899658 .43388368 .11999512 .48773194 .11999512 .5458069 .11999512 .61595156 .17399597 .677063 .2519989 .677063 .4189911 .677063 .44099427 .5127411 .44699098 .46777345 .44799806 .461792 .44799806 .45581056 .45899964 .45581056 .47200013 .45581056 .47200013 .46080018 .47200013 .47973634V.68107607C.47200013 .69807437 .47200013 .7050781 .46099855 .7050781 .45399476 .7050781 .45298768 .70407107 .44599916 .69207766L.41099549 .63497927C.3809967 .66404727 .33999635 .7050781 .25099183 .7050781 .13999939 .7050781 .055999757 .61694338 .055999757 .5107422 .055999757 .42790223 .10899353 .35490418 .18699646 .32788087 .19799805 .32388307 .24899292 .3118744 .31900025 .29486085 .34599305 .28785707 .37599183 .280838 .4039917 .24382019 .4249878 .2177887 .43499757 .18478394 .43499757 .1517334 .43499757 .0806427 .3849945 .008529663 .30099488 .008529663 .27198792 .008529663 .19599915 .013534546 .14299011 .06260681 .084991458 .11668396 .08198547 .18078614 .08099365 .21679688 .07998657 .22679138 .07199097 .22679138 .068984989 .22679138 .055999757 .22679138 .055999757 .2197876 .055999757 .20178223V.0015258789C.055999757-.015472412 .055999757-.022460938 .066986087-.022460938 .07398987-.022460938 .07499695-.020462037 .08198547-.009475708 .08198547-.009475708 .084991458-.0054626467 .117996219 .047592164 .14898682 .013534546 .21299744-.022460938 .3019867-.022460938 .4189911-.022460938 .49899293 .07562256 .49899293 .18579102Z"/>
<path id="font_1_104" d="M.68499758 .45214845 .66600039 .6767578H.054992677L.035995485 .45214845H.06098938C.07499695 .6128235 .08999634 .64575198 .24099732 .64575198 .25898744 .64575198 .2849884 .64575198 .29499818 .64375308 .31599427 .6397705 .31599427 .6287842 .31599427 .60583499V.07901001C.31599427 .04499817 .31599427 .0309906 .21099854 .0309906H.17098999V0C.21199036 .0029907227 .31399537 .0029907227 .3600006 .0029907227 .4059906 .0029907227 .5089874 .0029907227 .5499878 0V.0309906H.5099945C.40499879 .0309906 .40499879 .04499817 .40499879 .07901001V.60583499C.40499879 .62579348 .40499879 .6397705 .4229889 .64375308 .43399049 .64575198 .46099855 .64575198 .47999574 .64575198 .6309967 .64575198 .6459961 .6128235 .6599884 .45214845H.68499758Z"/>
<path id="font_1_82" d="M.4189911 0V.0309906H.3869934C.29699708 .0309906 .2939911 .041992189 .2939911 .07902527V.64012148C.2939911 .6640167 .2939911 .6660156 .2709961 .6660156 .20899964 .60227969 .12098694 .60227969 .08898926 .60227969V.57128909C.10899353 .57128909 .16799927 .57128909 .21998596 .5972748V.07902527C.21998596 .042999269 .21699524 .0309906 .1269989 .0309906H.09498596V0C.12998963 .0029907227 .21699524 .0029907227 .25698854 .0029907227 .29699708 .0029907227 .38398744 .0029907227 .4189911 0Z"/>
<path id="font_1_107" d="M.44898988 .17396546H.42399598C.4189911 .14398194 .4119873 .099990848 .4019928 .084991458 .394989 .07699585 .32899476 .07699585 .30699159 .07699585H.1269989L.23298645 .17996216C.3889923 .31803895 .44898988 .37210084 .44898988 .47216798 .44898988 .5860901 .35899354 .6660156 .23699951 .6660156 .12399292 .6660156 .049987794 .57411196 .049987794 .48516847 .049987794 .4291687 .099990848 .4291687 .102996829 .4291687 .11999512 .4291687 .15499878 .44117738 .15499878 .48217774 .15499878 .5081787 .13699341 .5341797 .101989749 .5341797 .09399414 .5341797 .09199524 .5341797 .08898926 .5331726 .11199951 .59806826 .1659851 .63500979 .22399903 .63500979 .31498719 .63500979 .35798646 .5541382 .35798646 .47216798 .35798646 .39196778 .30799867 .31297303 .25299073 .25097657L.06098938 .036987306C.049987794 .025985718 .049987794 .023986817 .049987794 0H.42099L.44898988 .17396546Z"/>
<path id="font_1_106" d="M.45700074 .17037964C.45700074 .252594 .3939972 .33088685 .2899933 .35191346 .37199403 .37893678 .42999269 .4490509 .42999269 .52809146 .42999269 .6100464 .34199525 .6660156 .24598694 .6660156 .14498902 .6660156 .068984989 .60606387 .068984989 .53009036 .068984989 .49710084 .09098816 .47808839 .11999512 .47808839 .15098572 .47808839 .17098999 .50009158 .17098999 .5290985 .17098999 .57910159 .12399292 .57910159 .10899353 .57910159 .13999939 .62802127 .20599365 .64100649 .24198914 .64100649 .2829895 .64100649 .33799745 .6190338 .33799745 .5290985 .33799745 .51708987 .33599855 .45906068 .30999757 .4149933 .27999879 .36691285 .24598694 .36390687 .22099304 .36291505 .21299744 .36190797 .18899536 .35990907 .18199158 .35990907 .17399597 .35890199 .16699219 .35791017 .16699219 .3479004 .16699219 .33691407 .17399597 .33691407 .19099427 .33691407H.23498535C.31698609 .33691407 .35398866 .2686615 .35398866 .17037964 .35398866 .034469606 .2849884 .0055389406 .24099732 .0055389406 .19799805 .0055389406 .12298584 .022491456 .08799744 .08137512 .12298584 .07637024 .1539917 .09837341 .1539917 .1363678 .1539917 .17237854 .1269989 .19238281 .09799194 .19238281 .07398987 .19238281 .041992189 .17837525 .041992189 .1343689 .041992189 .043441774 .1349945-.022460938 .24398804-.022460938 .3659973-.022460938 .45700074 .06838989 .45700074 .17037964Z"/>
<path id="font_1_57" d="M.47099305 .16503906V.19602967H.37098695V.6507721C.37098695 .6707611 .37098695 .6767578 .35499574 .6767578 .34599305 .6767578 .34298707 .6767578 .33499146 .6647644L.027999878 .19602967V.16503906H.2939911V.07800293C.2939911 .041992189 .2919922 .0309906 .21798706 .0309906H.19699097V0C.23799134 .0029907227 .2899933 .0029907227 .33198548 .0029907227 .37399293 .0029907227 .4269867 .0029907227 .46798707 0V.0309906H.44699098C.37298585 .0309906 .37098695 .041992189 .37098695 .07800293V.16503906H.47099305M.2999878 .19602967H.055999757L.2999878 .56881716V.19602967Z"/>
<path id="font_1_56" d="M.44898988 .20091248C.44898988 .31991578 .36698915 .41992188 .25898744 .41992188 .21099854 .41992188 .16799927 .4039154 .13198853 .36891175V.5641022C.1519928 .55778506 .18499756 .55078127 .21699524 .55078127 .33999635 .55078127 .4099884 .6418457 .4099884 .65493777 .4099884 .6609802 .40699769 .6660156 .3999939 .6660156 .3999939 .66607668 .39698792 .66607668 .3919983 .66308596 .37199403 .65408328 .32299806 .63378909 .2559967 .63378909 .21598816 .63409426 .16999817 .641098 .12298584 .6621094 .114990238 .6651001 .11099243 .6651001 .11099243 .6651001 .100997928 .66508486 .100997928 .657074 .100997928 .64108279V.3447113C.100997928 .3266449 .100997928 .31861878 .114990238 .31861878 .12199402 .31861878 .12399292 .32164 .12799073 .32765199 .13899231 .34371949 .17599488 .3979187 .25698854 .3979187 .30899049 .3979187 .33399964 .3517456 .34199525 .3336792 .35798646 .2965393 .3600006 .2574005 .3600006 .20721436 .3600006 .17218018 .3600006 .112197879 .33599855 .07032776 .31199647 .031448366 .2749939 .0055389406 .22898865 .0055389406 .1559906 .0055389406 .09899902 .05836487 .08198547 .1171875 .084991458 .11685181 .08799744 .115859989 .09899902 .115859989 .13198853 .115859989 .14898682 .14085388 .14898682 .16485596 .14898682 .18885803 .13198853 .21386719 .09899902 .21386719 .084991458 .21386719 .049987794 .2068634 .049987794 .16085816 .049987794 .07432556 .11898804-.022460938 .23098755-.022460938 .34700013-.022460938 .44898988 .07331848 .44898988 .20019531V.20091248Z"/>
<path id="font_1_101" d="M.45700074 .2036438C.45700074 .33070375 .36799623 .4267578 .25698854 .4267578 .18899536 .4267578 .1519928 .37573243 .13198853 .327713V.35173036C.13198853 .6047821 .2559967 .64100649 .30699159 .64100649 .33099366 .64100649 .37298585 .634964 .394989 .6007538 .37998963 .6007538 .33999635 .6007538 .33999635 .5557556 .33999635 .524765 .3639984 .5097656 .38598634 .5097656 .4019928 .5097656 .43199159 .51875308 .43199159 .5577545 .43199159 .6178589 .3880005 .6660156 .30499269 .6660156 .1769867 .6660156 .041992189 .5367584 .041992189 .31570436 .041992189 .048553468 .1579895-.022460938 .25099183-.022460938 .3619995-.022460938 .45700074 .07156372 .45700074 .2036438M.36698915 .20463562C.36698915 .15661621 .36698915 .10658264 .34999085 .0705719 .31999208 .010528564 .27398683 .0055389406 .25099183 .0055389406 .18798828 .0055389406 .1579895 .06556702 .1519928 .080566409 .13398743 .127594 .13398743 .2076416 .13398743 .22564698 .13398743 .30369569 .1659851 .40374757 .2559967 .40374757 .27198792 .40374757 .31799317 .40374757 .34899903 .34172059 .36698915 .30470277 .36698915 .2536621 .36698915 .20463562Z"/>
<path id="font_1_100" d="M.4850006 .6435547H.24198914C.11999512 .6435547 .117996219 .6566467 .11399841 .67578127H.08898926L.055999757 .46954347H.08099365C.083999637 .48554994 .09298706 .54855349 .10598755 .5605469 .11299133 .5665436 .19099427 .5665436 .20399475 .5665436H.41099549L.29899598 .40853883C.20899964 .2735443 .17599488 .13453675 .17599488 .03253174 .17599488 .022537232 .17599488-.022460938 .22200012-.022460938 .2679901-.022460938 .2679901 .022537232 .2679901 .03253174V.08354187C.2679901 .13853455 .2709961 .19354248 .2789917 .24754334 .2829895 .27053834 .29699708 .35653688 .34098817 .41854859L.47599793 .608551C.4850006 .62054446 .4850006 .62254336 .4850006 .6435547Z"/>
<path id="font_1_51" d="M.45700074 .16764832C.45700074 .20367432 .44599916 .24871826 .4079895 .29074098 .3889923 .31176759 .37298585 .32176209 .30899049 .36180116 .3809967 .39881898 .42999269 .4508667 .42999269 .51690676 .42999269 .6089783 .34098817 .6660156 .25 .6660156 .1499939 .6660156 .068984989 .5919647 .068984989 .49890138 .068984989 .48088075 .070999149 .43585206 .11299133 .38882447 .12399292 .3768158 .16099549 .35179139 .18598938 .33477784 .12799073 .30575563 .041992189 .24971009 .041992189 .15063477 .041992189 .044555665 .14399719-.022460938 .24899292-.022460938 .3619995-.022460938 .45700074 .060577394 .45700074 .16764832M.38598634 .51690676C.38598634 .45986939 .34700013 .41183473 .2869873 .3768158L.16299439 .4568634C.116989139 .4868927 .11299133 .5209198 .11299133 .53793337 .11299133 .5989685 .17799378 .64100649 .24899292 .64100649 .32199098 .64100649 .38598634 .588974 .38598634 .51690676M.40699769 .13162232C.40699769 .05757141 .33198548 .0055389406 .25 .0055389406 .1639862 .0055389406 .09199524 .06758118 .09199524 .15063477 .09199524 .2086792 .12399292 .2727356 .20899964 .31976319L.33198548 .24171448C.3600006 .22268677 .40699769 .19267273 .40699769 .13162232Z"/>
<path id="font_1_78" d="M.45700074 .32888795C.45700074 .598114 .34199525 .6660156 .25299073 .6660156 .19799805 .6660156 .14898682 .64801028 .10598755 .6031189 .06498718 .5580902 .041992189 .5160217 .041992189 .44091798 .041992189 .3158722 .12998963 .21777344 .24198914 .21777344 .30299378 .21777344 .34399415 .25979615 .36698915 .3178711V.28582765C.36698915 .05178833 .2630005 .0055389406 .20498657 .0055389406 .18798828 .0055389406 .13398743 .007537842 .10699463 .041778566 .15098572 .041778566 .15899658 .07078552 .15899658 .08778381 .15899658 .118774417 .1349945 .13378906 .11299133 .13378906 .09700012 .13378906 .066986087 .12478638 .066986087 .08578491 .066986087 .018615723 .12098694-.022460938 .20599365-.022460938 .33499146-.022460938 .45700074 .11378479 .45700074 .32888795M.36499024 .42089845C.36499024 .33789063 .33099366 .24076844 .24299622 .24076844 .22698975 .2407074 .18099976 .2407074 .1499939 .30371095 .13198853 .34072877 .13198853 .3908081 .13198853 .43988038 .13198853 .49397279 .13198853 .5410614 .15299988 .578125 .17999268 .62805178 .21798706 .64100649 .25299073 .64100649 .29899598 .64100649 .33198548 .60710147 .34899903 .562088 .36099244 .52989199 .36499024 .46688844 .36499024 .42089845Z"/>
<path id="font_1_121" d="M.45999146 .31976319C.45999146 .39982606 .45498658 .47988893 .41999818 .5539398 .37399293 .65000918 .2919922 .6660156 .25 .6660156 .18998719 .6660156 .116989139 .64001467 .07598877 .54693606 .04399109 .47789 .038986207 .39982606 .038986207 .31976319 .038986207 .24472046 .042999269 .15464783 .083999637 .07859802 .1269989-.0024719239 .19999695-.022460938 .24899292-.022460938 .30299378-.022460938 .3789978-.0014648438 .4229889 .09359741 .45498658 .16265869 .45999146 .2407074 .45999146 .31976319M.3769989 .3317871C.3769989 .25672914 .3769989 .18867493 .3659973 .12461853 .35099793 .029556275 .2939911-.00047302247 .24899292-.00047302247 .20999146-.00047302247 .15098572 .024551392 .1329956 .12062073 .12199402 .18066406 .12199402 .2727356 .12199402 .3317871 .12199402 .39582826 .12199402 .46188355 .12998963 .5159149 .14898682 .63500979 .22399903 .64401248 .24899292 .64401248 .28199769 .64401248 .34799195 .6259918 .36698915 .52693179 .3769989 .47088624 .3769989 .39482118 .3769989 .3317871Z"/>
</defs>
<path transform="matrix(1.00002,0,0,-1.00003,-6.140396,435.22773)" stroke-width=".3985" stroke-linecap="butt" stroke-miterlimit="10" stroke-linejoin="miter" fill="none" stroke="#000000" d="M22.67752 22.67752H430.87315M22.67752 45.35506H430.87315M22.67752 68.0326H430.87315M22.67752 90.71013H430.87315M22.67752 113.38766H430.87315M22.67752 136.0652H430.87315M22.67752 158.74274H430.87315M22.67752 181.42028H430.87315M22.67752 204.09781H430.87315M22.67752 226.77533H430.87315M22.67752 249.45287H430.87315M22.67752 272.1304H430.87315M22.67752 294.80796H430.87315M22.67752 317.48548H430.87315M22.67752 340.16304H430.87315M22.67752 362.84056H430.87315M22.67752 385.51808H430.87315M22.67752 408.19563H430.87315M22.67752 430.86518H430.87315M22.67752 22.67752V430.87315M45.35506 22.67752V430.87315M68.0326 22.67752V430.87315M90.71013 22.67752V430.87315M113.38766 22.67752V430.87315M136.0652 22.67752V430.87315M158.74274 22.67752V430.87315M181.42028 22.67752V430.87315M204.09781 22.67752V430.87315M226.77533 22.67752V430.87315M249.45287 22.67752V430.87315M272.1304 22.67752V430.87315M294.80796 22.67752V430.87315M317.48548 22.67752V430.87315M340.16304 22.67752V430.87315M362.84056 22.67752V430.87315M385.51808 22.67752V430.87315M408.19563 22.67752V430.87315M430.86518 22.67752V430.87315M430.87315 430.87315"/>
<path transform="matrix(1.00002,0,0,-1.00003,-6.140396,435.22773)" stroke-width="1.19553" stroke-linecap="butt" stroke-miterlimit="10" stroke-linejoin="miter" fill="none" stroke="#000000" d="M22.67752 22.67752H430.87315M22.67752 430.87315H430.87315M430.87315 22.67752V430.87315M22.67752 22.67752V430.87315"/>
<path transform="matrix(1.00002,0,0,-1.00003,-6.140396,435.22773)" d="M229.0432 226.77533C229.0432 228.02785 228.02785 229.0432 226.77533 229.0432 225.5228 229.0432 224.50745 228.02785 224.50745 226.77533 224.50745 225.5228 225.5228 224.50745 226.77533 224.50745 228.02785 224.50745 229.0432 225.5228 229.0432 226.77533ZM226.77533 226.77533"/>
<path transform="matrix(1.00002,0,0,-1.00003,-6.140396,435.22773)" d="M92.978 90.71013C92.978 91.96265 91.96265 92.978 90.71013 92.978 89.4576 92.978 88.44225 91.96265 88.44225 90.71013 88.44225 89.4576 89.4576 88.44225 90.71013 88.44225 91.96265 88.44225 92.978 89.4576 92.978 90.71013ZM90.71013 90.71013"/>
<path transform="matrix(1.00002,0,0,-1.00003,-6.140396,435.22773)" d="M92.978 226.77533C92.978 228.02785 91.96265 229.0432 90.71013 229.0432 89.4576 229.0432 88.44225 228.02785 88.44225 226.77533 88.44225 225.5228 89.4576 224.50745 90.71013 224.50745 91.96265 224.50745 92.978 225.5228 92.978 226.77533ZM90.71013 226.77533"/>
<path transform="matrix(1.00002,0,0,-1.00003,-6.140396,435.22773)" d="M92.978 362.84056C92.978 364.09306 91.96265 365.1084 90.71013 365.1084 89.4576 365.1084 88.44225 364.09306 88.44225 362.84056 88.44225 361.588 89.4576 360.57267 90.71013 360.57267 91.96265 360.57267 92.978 361.588 92.978 362.84056ZM90.71013 362.84056"/>
<path transform="matrix(1.00002,0,0,-1.00003,-6.140396,435.22773)" d="M229.0432 90.71013C229.0432 91.96265 228.02785 92.978 226.77533 92.978 225.5228 92.978 224.50745 91.96265 224.50745 90.71013 224.50745 89.4576 225.5228 88.44225 226.77533 88.44225 228.02785 88.44225 229.0432 89.4576 229.0432 90.71013ZM226.77533 90.71013"/>
<path transform="matrix(1.00002,0,0,-1.00003,-6.140396,435.22773)" d="M229.0432 362.84056C229.0432 364.09306 228.02785 365.1084 226.77533 365.1084 225.5228 365.1084 224.50745 364.09306 224.50745 362.84056 224.50745 361.588 225.5228 360.57267 226.77533 360.57267 228.02785 360.57267 229.0432 361.588 229.0432 362.84056ZM226.77533 362.84056"/>
<path transform="matrix(1.00002,0,0,-1.00003,-6.140396,435.22773)" d="M365.1084 90.71013C365.1084 91.96265 364.09306 92.978 362.84056 92.978 361.588 92.978 360.57267 91.96265 360.57267 90.71013 360.57267 89.4576 361.588 88.44225 362.84056 88.44225 364.09306 88.44225 365.1084 89.4576 365.1084 90.71013ZM362.84056 90.71013"/>
<path transform="matrix(1.00002,0,0,-1.00003,-6.140396,435.22773)" d="M365.1084 226.77533C365.1084 228.02785 364.09306 229.0432 362.84056 229.0432 361.588 229.0432 360.57267 228.02785 360.57267 226.77533 360.57267 225.5228 361.588 224.50745 362.84056 224.50745 364.09306 224.50745 365.1084 225.5228 365.1084 226.77533ZM362.84056 226.77533"/>
<path transform="matrix(1.00002,0,0,-1.00003,-6.140396,435.22773)" d="M365.1084 362.84056C365.1084 364.09306 364.09306 365.1084 362.84056 365.1084 361.588 365.1084 360.57267 364.09306 360.57267 362.84056 360.57267 361.588 361.588 360.57267 362.84056 360.57267 364.09306 360.57267 365.1084 361.588 365.1084 362.84056ZM362.84056 362.84056"/>
<path transform="matrix(1.00002,0,0,-1.00003,-6.140396,435.22773)" stroke-width=".3985" stroke-linecap="butt" stroke-miterlimit="10" stroke-linejoin="miter" fill="none" stroke="#000000" d="M22.67752 11.33876"/>
<use data-text="A" xlink:href="#font_1_27" transform="matrix(9.962799,0,0,-9.962899,12.80098,427.45549)"/>
<path transform="matrix(1.00002,0,0,-1.00003,-6.140396,435.22773)" stroke-width=".3985" stroke-linecap="butt" stroke-miterlimit="10" stroke-linejoin="miter" fill="none" stroke="#000000" d="M45.35506 11.33876"/>
<use data-text="B" xlink:href="#font_1_34" transform="matrix(9.962799,0,0,-9.962899,35.688444,427.29148)"/>
<path transform="matrix(1.00002,0,0,-1.00003,-6.140396,435.22773)" stroke-width=".3985" stroke-linecap="butt" stroke-miterlimit="10" stroke-linejoin="miter" fill="none" stroke="#000000" d="M68.0326 11.33876"/>
<use data-text="C" xlink:href="#font_1_42" transform="matrix(9.962799,0,0,-9.962899,58.29689,427.29148)"/>
<path transform="matrix(1.00002,0,0,-1.00003,-6.140396,435.22773)" stroke-width=".3985" stroke-linecap="butt" stroke-miterlimit="10" stroke-linejoin="miter" fill="none" stroke="#000000" d="M90.71013 11.33876"/>
<use data-text="D" xlink:href="#font_1_46" transform="matrix(9.962799,0,0,-9.962899,80.76534,427.29148)"/>
<path transform="matrix(1.00002,0,0,-1.00003,-6.140396,435.22773)" stroke-width=".3985" stroke-linecap="butt" stroke-miterlimit="10" stroke-linejoin="miter" fill="none" stroke="#000000" d="M113.38766 11.33876"/>
<use data-text="E" xlink:href="#font_1_49" transform="matrix(9.962799,0,0,-9.962899,103.85681,427.2765)"/>
<path transform="matrix(1.00002,0,0,-1.00003,-6.140396,435.22773)" stroke-width=".3985" stroke-linecap="butt" stroke-miterlimit="10" stroke-linejoin="miter" fill="none" stroke="#000000" d="M136.0652 11.33876"/>
<use data-text="F" xlink:href="#font_1_54" transform="matrix(9.962799,0,0,-9.962899,126.674259,427.2765)"/>
<path transform="matrix(1.00002,0,0,-1.00003,-6.140396,435.22773)" stroke-width=".3985" stroke-linecap="butt" stroke-miterlimit="10" stroke-linejoin="miter" fill="none" stroke="#000000" d="M158.74274 11.33876"/>
<use data-text="G" xlink:href="#font_1_58" transform="matrix(9.962799,0,0,-9.962899,148.6947,427.29148)"/>
<path transform="matrix(1.00002,0,0,-1.00003,-6.140396,435.22773)" stroke-width=".3985" stroke-linecap="butt" stroke-miterlimit="10" stroke-linejoin="miter" fill="none" stroke="#000000" d="M181.42028 11.33876"/>
<use data-text="H" xlink:href="#font_1_62" transform="matrix(9.962799,0,0,-9.962899,171.54717,427.29148)"/>
<path transform="matrix(1.00002,0,0,-1.00003,-6.140396,435.22773)" stroke-width=".3985" stroke-linecap="butt" stroke-miterlimit="10" stroke-linejoin="miter" fill="none" stroke="#000000" d="M204.09781 11.33876"/>
<use data-text="J" xlink:href="#font_1_67" transform="matrix(9.962799,0,0,-9.962899,195.40065,427.1815)"/>
<path transform="matrix(1.00002,0,0,-1.00003,-6.140396,435.22773)" stroke-width=".3985" stroke-linecap="butt" stroke-miterlimit="10" stroke-linejoin="miter" fill="none" stroke="#000000" d="M226.77533 11.33876"/>
<use data-text="K" xlink:href="#font_1_69" transform="matrix(9.962799,0,0,-9.962899,216.76407,427.29148)"/>
<path transform="matrix(1.00002,0,0,-1.00003,-6.140396,435.22773)" stroke-width=".3985" stroke-linecap="butt" stroke-miterlimit="10" stroke-linejoin="miter" fill="none" stroke="#000000" d="M249.45287 11.33876"/>
<use data-text="L" xlink:href="#font_1_71" transform="matrix(9.962799,0,0,-9.962899,240.20354,427.29148)"/>
<path transform="matrix(1.00002,0,0,-1.00003,-6.140396,435.22773)" stroke-width=".3985" stroke-linecap="butt" stroke-miterlimit="10" stroke-linejoin="miter" fill="none" stroke="#000000" d="M272.1304 11.33876"/>
<use data-text="M" xlink:href="#font_1_74" transform="matrix(9.962799,0,0,-9.962899,261.427,427.29148)"/>
<path transform="matrix(1.00002,0,0,-1.00003,-6.140396,435.22773)" stroke-width=".3985" stroke-linecap="butt" stroke-miterlimit="10" stroke-linejoin="miter" fill="none" stroke="#000000" d="M294.80796 11.33876"/>
<use data-text="N" xlink:href="#font_1_76" transform="matrix(9.962799,0,0,-9.962899,284.93745,427.29148)"/>
<path transform="matrix(1.00002,0,0,-1.00003,-6.140396,435.22773)" stroke-width=".3985" stroke-linecap="butt" stroke-miterlimit="10" stroke-linejoin="miter" fill="none" stroke="#000000" d="M317.48548 11.33876"/>
<use data-text="O" xlink:href="#font_1_80" transform="matrix(9.962799,0,0,-9.962899,307.4759,427.29148)"/>
<path transform="matrix(1.00002,0,0,-1.00003,-6.140396,435.22773)" stroke-width=".3985" stroke-linecap="butt" stroke-miterlimit="10" stroke-linejoin="miter" fill="none" stroke="#000000" d="M340.16304 11.33876"/>
<use data-text="P" xlink:href="#font_1_83" transform="matrix(9.962799,0,0,-9.962899,330.63734,427.29148)"/>
<path transform="matrix(1.00002,0,0,-1.00003,-6.140396,435.22773)" stroke-width=".3985" stroke-linecap="butt" stroke-miterlimit="10" stroke-linejoin="miter" fill="none" stroke="#000000" d="M362.84056 11.33876"/>
<use data-text="Q" xlink:href="#font_1_90" transform="matrix(9.962799,0,0,-9.962899,352.83183,426.43446)"/>
<path transform="matrix(1.00002,0,0,-1.00003,-6.140396,435.22773)" stroke-width=".3985" stroke-linecap="butt" stroke-miterlimit="10" stroke-linejoin="miter" fill="none" stroke="#000000" d="M385.51808 11.33876"/>
<use data-text="R" xlink:href="#font_1_95" transform="matrix(9.962799,0,0,-9.962899,375.71928,427.1815)"/>
<path transform="matrix(1.00002,0,0,-1.00003,-6.140396,435.22773)" stroke-width=".3985" stroke-linecap="butt" stroke-miterlimit="10" stroke-linejoin="miter" fill="none" stroke="#000000" d="M408.19563 11.33876"/>
<use data-text="S" xlink:href="#font_1_97" transform="matrix(9.962799,0,0,-9.962899,399.29374,427.29148)"/>
<path transform="matrix(1.00002,0,0,-1.00003,-6.140396,435.22773)" stroke-width=".3985" stroke-linecap="butt" stroke-miterlimit="10" stroke-linejoin="miter" fill="none" stroke="#000000" d="M430.87315 11.33876"/>
<use data-text="T" xlink:href="#font_1_104" transform="matrix(9.962799,0,0,-9.962899,421.14518,427.26148)"/>
<path transform="matrix(1.00002,0,0,-1.00003,-6.140396,435.22773)" stroke-width=".3985" stroke-linecap="butt" stroke-miterlimit="10" stroke-linejoin="miter" fill="none" stroke="#000000" d="M11.33876 22.67752"/>
<use data-text="1" xlink:href="#font_1_82" transform="matrix(9.962799,0,0,-9.962899,2.707779,415.86714)"/>
<path transform="matrix(1.00002,0,0,-1.00003,-6.140396,435.22773)" stroke-width=".3985" stroke-linecap="butt" stroke-miterlimit="10" stroke-linejoin="miter" fill="none" stroke="#000000" d="M11.33876 45.35506"/>
<use data-text="2" xlink:href="#font_1_107" transform="matrix(9.962799,0,0,-9.962899,2.707779,393.18946)"/>
<path transform="matrix(1.00002,0,0,-1.00003,-6.140396,435.22773)" stroke-width=".3985" stroke-linecap="butt" stroke-miterlimit="10" stroke-linejoin="miter" fill="none" stroke="#000000" d="M11.33876 68.0326"/>
<use data-text="3" xlink:href="#font_1_106" transform="matrix(9.962799,0,0,-9.962899,2.707779,370.4008)"/>
<path transform="matrix(1.00002,0,0,-1.00003,-6.140396,435.22773)" stroke-width=".3985" stroke-linecap="butt" stroke-miterlimit="10" stroke-linejoin="miter" fill="none" stroke="#000000" d="M11.33876 90.71013"/>
<use data-text="4" xlink:href="#font_1_57" transform="matrix(9.962799,0,0,-9.962899,2.707779,347.8871)"/>
<path transform="matrix(1.00002,0,0,-1.00003,-6.140396,435.22773)" stroke-width=".3985" stroke-linecap="butt" stroke-miterlimit="10" stroke-linejoin="miter" fill="none" stroke="#000000" d="M11.33876 113.38766"/>
<use data-text="5" xlink:href="#font_1_56" transform="matrix(9.962799,0,0,-9.962899,2.707779,325.0444)"/>
<path transform="matrix(1.00002,0,0,-1.00003,-6.140396,435.22773)" stroke-width=".3985" stroke-linecap="butt" stroke-miterlimit="10" stroke-linejoin="miter" fill="none" stroke="#000000" d="M11.33876 136.0652"/>
<use data-text="6" xlink:href="#font_1_101" transform="matrix(9.962799,0,0,-9.962899,2.707779,302.36674)"/>
<path transform="matrix(1.00002,0,0,-1.00003,-6.140396,435.22773)" stroke-width=".3985" stroke-linecap="butt" stroke-miterlimit="10" stroke-linejoin="miter" fill="none" stroke="#000000" d="M11.33876 158.74274"/>
<use data-text="7" xlink:href="#font_1_100" transform="matrix(9.962799,0,0,-9.962899,2.707779,279.73805)"/>
<path transform="matrix(1.00002,0,0,-1.00003,-6.140396,435.22773)" stroke-width=".3985" stroke-linecap="butt" stroke-miterlimit="10" stroke-linejoin="miter" fill="none" stroke="#000000" d="M11.33876 181.42028"/>
<use data-text="8" xlink:href="#font_1_51" transform="matrix(9.962799,0,0,-9.962899,2.707779,257.01039)"/>
<path transform="matrix(1.00002,0,0,-1.00003,-6.140396,435.22773)" stroke-width=".3985" stroke-linecap="butt" stroke-miterlimit="10" stroke-linejoin="miter" fill="none" stroke="#000000" d="M11.33876 204.09781"/>
<use data-text="9" xlink:href="#font_1_78" transform="matrix(9.962799,0,0,-9.962899,2.707779,234.33168)"/>
<path transform="matrix(1.00002,0,0,-1.00003,-6.140396,435.22773)" stroke-width=".3985" stroke-linecap="butt" stroke-miterlimit="10" stroke-linejoin="miter" fill="none" stroke="#000000" d="M11.33876 226.77533"/>
<use data-text="1" xlink:href="#font_1_82" transform="matrix(9.962799,0,0,-9.962899,.21672821,211.654)"/>
<use data-text="0" xlink:href="#font_1_121" transform="matrix(9.962799,0,0,-9.962899,5.1981279,211.654)"/>
<path transform="matrix(1.00002,0,0,-1.00003,-6.140396,435.22773)" stroke-width=".3985" stroke-linecap="butt" stroke-miterlimit="10" stroke-linejoin="miter" fill="none" stroke="#000000" d="M11.33876 249.45287"/>
<use data-text="1" xlink:href="#font_1_82" transform="matrix(9.962799,0,0,-9.962899,.21672821,189.08533)"/>
<use data-text="1" xlink:href="#font_1_82" transform="matrix(9.962799,0,0,-9.962899,5.1981279,189.08533)"/>
<path transform="matrix(1.00002,0,0,-1.00003,-6.140396,435.22773)" stroke-width=".3985" stroke-linecap="butt" stroke-miterlimit="10" stroke-linejoin="miter" fill="none" stroke="#000000" d="M11.33876 272.1304"/>
<use data-text="1" xlink:href="#font_1_82" transform="matrix(9.962799,0,0,-9.962899,.21672821,166.40665)"/>
<use data-text="2" xlink:href="#font_1_107" transform="matrix(9.962799,0,0,-9.962899,5.1981279,166.40665)"/>
<path transform="matrix(1.00002,0,0,-1.00003,-6.140396,435.22773)" stroke-width=".3985" stroke-linecap="butt" stroke-miterlimit="10" stroke-linejoin="miter" fill="none" stroke="#000000" d="M11.33876 294.80796"/>
<use data-text="1" xlink:href="#font_1_82" transform="matrix(9.962799,0,0,-9.962899,.21672821,143.61896)"/>
<use data-text="3" xlink:href="#font_1_106" transform="matrix(9.962799,0,0,-9.962899,5.1981279,143.61896)"/>
<path transform="matrix(1.00002,0,0,-1.00003,-6.140396,435.22773)" stroke-width=".3985" stroke-linecap="butt" stroke-miterlimit="10" stroke-linejoin="miter" fill="none" stroke="#000000" d="M11.33876 317.48548"/>
<use data-text="1" xlink:href="#font_1_82" transform="matrix(9.962799,0,0,-9.962899,.21672821,121.105289)"/>
<use data-text="4" xlink:href="#font_1_57" transform="matrix(9.962799,0,0,-9.962899,5.1981279,121.105289)"/>
<path transform="matrix(1.00002,0,0,-1.00003,-6.140396,435.22773)" stroke-width=".3985" stroke-linecap="butt" stroke-miterlimit="10" stroke-linejoin="miter" fill="none" stroke="#000000" d="M11.33876 340.16304"/>
<use data-text="1" xlink:href="#font_1_82" transform="matrix(9.962799,0,0,-9.962899,.21672821,98.2626)"/>
<use data-text="5" xlink:href="#font_1_56" transform="matrix(9.962799,0,0,-9.962899,5.1981279,98.2626)"/>
<path transform="matrix(1.00002,0,0,-1.00003,-6.140396,435.22773)" stroke-width=".3985" stroke-linecap="butt" stroke-miterlimit="10" stroke-linejoin="miter" fill="none" stroke="#000000" d="M11.33876 362.84056"/>
<use data-text="1" xlink:href="#font_1_82" transform="matrix(9.962799,0,0,-9.962899,.21672821,75.58493)"/>
<use data-text="6" xlink:href="#font_1_101" transform="matrix(9.962799,0,0,-9.962899,5.1981279,75.58493)"/>
<path transform="matrix(1.00002,0,0,-1.00003,-6.140396,435.22773)" stroke-width=".3985" stroke-linecap="butt" stroke-miterlimit="10" stroke-linejoin="miter" fill="none" stroke="#000000" d="M11.33876 385.51808"/>
<use data-text="1" xlink:href="#font_1_82" transform="matrix(9.962799,0,0,-9.962899,.21672821,52.956239)"/>
<use data-text="7" xlink:href="#font_1_100" transform="matrix(9.962799,0,0,-9.962899,5.1981279,52.956239)"/>
<path transform="matrix(1.00002,0,0,-1.00003,-6.140396,435.22773)" stroke-width=".3985" stroke-linecap="butt" stroke-miterlimit="10" stroke-linejoin="miter" fill="none" stroke="#000000" d="M11.33876 408.19563"/>
<use data-text="1" xlink:href="#font_1_82" transform="matrix(9.962799,0,0,-9.962899,.21672821,30.22754)"/>
<use data-text="8" xlink:href="#font_1_51" transform="matrix(9.962799,0,0,-9.962899,5.1981279,30.22754)"/>
<path transform="matrix(1.00002,0,0,-1.00003,-6.140396,435.22773)" stroke-width=".3985" stroke-linecap="butt" stroke-miterlimit="10" stroke-linejoin="miter" fill="none" stroke="#000000" d="M11.33876 430.87315"/>
<use data-text="1" xlink:href="#font_1_82" transform="matrix(9.962799,0,0,-9.962899,.21672821,7.5498659)"/>
<use data-text="9" xlink:href="#font_1_78" transform="matrix(9.962799,0,0,-9.962899,5.1981279,7.5498659)"/>
<path transform="matrix(1.00002,0,0,-1.00003,-6.140396,435.22773)" d="M100.91493 181.42028C100.91493 187.05629 96.34615 191.62508 90.71013 191.62508 85.0741 191.62508 80.50531 187.05629 80.50531 181.42028 80.50531 175.78424 85.0741 171.21546 90.71013 171.21546 96.34615 171.21546 100.91493 175.78424 100.91493 181.42028ZM90.71013 181.42028" fill="#ffffff"/>
<path transform="matrix(1.00002,0,0,-1.00003,-6.140396,435.22773)" stroke-width=".3985" stroke-linecap="butt" stroke-miterlimit="10" stroke-linejoin="miter" fill="none" stroke="#000000" d="M100.91493 181.42028C100.91493 187.05629 96.34615 191.62508 90.71013 191.62508 85.0741 191.62508 80.50531 187.05629 80.50531 181.42028 80.50531 175.78424 85.0741 171.21546 90.71013 171.21546 96.34615 171.21546 100.91493 175.78424 100.91493 181.42028ZM90.71013 181.42028"/>
<path transform="matrix(1.00002,0,0,-1.00003,-6.140396,435.22773)" d="M282.3352 385.51808C282.3352 391.1541 277.76643 395.7229 272.1304 395.7229 266.4944 395.7229 261.92558 391.1541 261.92558 385.51808 261.92558 379.88206 266.4944 375.31327 272.1304 375.31327 277.76643 375.31327 282.3352 379.88206 282.3352 385.51808ZM272.1304 385.51808"/>
</svg>
